<svg xmlns="http://www.w3.org/2000/svg" viewBox="0 0 24 24" role="img" aria-hidden="true">
  <path fill="#DBC2B0" d="M12 6c-2.67 0-4.333 1.325-5 3.975 1-1.325 2.17-1.822 3.51-1.492 0.763 0.192 1.309 0.753 1.911 1.373 0.983 1.003 2.122 2.165 4.579 2.165 2.67 0 4.333-1.325 5-3.975-1 1.325-2.17 1.822-3.51 1.492-0.763-0.192-1.309-0.753-1.911-1.373-0.983-1.003-2.122-2.165-4.579-2.165zM7 12c-2.67 0-4.333 1.325-5 3.975 1-1.325 2.17-1.822 3.51-1.492 0.763 0.192 1.309 0.753 1.911 1.373 0.983 1.003 2.122 2.165 4.579 2.165 2.67 0 4.333-1.325 5-3.975-1 1.325-2.17 1.822-3.51 1.492-0.763-0.192-1.309-0.753-1.911-1.373-0.983-1.003-2.122-2.165-4.579-2.165z"/>
</svg>
